<svg width="168" height="168" viewBox="0 0 168 168" fill="none" xmlns="http://www.w3.org/2000/svg">
<path d="M35.9587 37.775C25.334 48.8024 18.8295 63.1513 17.5384 78.4097C16.2473 93.6682 20.2484 108.906 28.8691 121.562C37.4898 134.218 50.2046 143.52 64.8763 147.905C79.5479 152.29 95.2819 151.491 109.434 145.642C110.392 139.392 108.292 133.392 107.434 131.292C105.517 126.625 99.2003 118.65 88.6587 107.592C85.842 104.633 86.0253 102.367 87.0337 95.6167L87.142 94.8584C87.8253 90.2417 88.9753 87.5084 104.517 85.0417C112.417 83.7917 114.492 86.9417 117.367 91.3167L118.334 92.75C121.067 96.75 123.092 97.6667 126.15 99.05C127.525 99.675 129.234 100.467 131.525 101.758C136.959 104.867 136.959 108.375 136.959 116.058V116.933C136.959 120.192 136.642 123.058 136.142 125.55C142.537 117.524 146.993 108.131 149.164 98.1016C151.334 88.0721 151.161 77.6769 148.657 67.7253C146.153 57.7737 141.387 48.5342 134.728 40.7262C128.069 32.9181 119.698 26.7522 110.267 22.7084C105.659 25.8167 99.3337 30.225 97.1253 33.25C96.0003 34.7917 94.4003 42.6834 89.2087 43.3334C87.8587 43.5 86.0337 43.3834 84.1003 43.2584C78.917 42.925 71.8337 42.4667 69.567 48.625C68.1253 52.525 67.8753 63.125 72.5337 68.625C73.2837 69.5 73.4253 71.125 72.917 72.95C72.2503 75.3417 70.9087 76.8 70.4837 77.1C69.6837 76.6334 68.0837 74.775 66.992 73.5167C64.3837 70.4667 61.117 66.6833 56.9003 65.5167C55.367 65.0917 53.6837 64.7417 52.042 64.3917C47.467 63.4334 42.292 62.3417 41.0837 59.775C40.2003 57.8917 40.2087 55.3 40.2087 52.5667C40.2087 49.0917 40.2087 45.1667 38.5087 41.3584C37.9126 40.0021 37.0447 38.7825 35.9587 37.775ZM84.0003 167.333C37.9753 167.333 0.666992 130.025 0.666992 84C0.666992 37.975 37.9753 0.666687 84.0003 0.666687C130.025 0.666687 167.334 37.975 167.334 84C167.334 130.025 130.025 167.333 84.0003 167.333Z" fill="url(#paint0_linear_298_737)"/>
<defs>
<linearGradient id="paint0_linear_298_737" x1="84.0003" y1="0.666687" x2="84.0003" y2="167.333" gradientUnits="userSpaceOnUse">
<stop stop-color="#F8FAFC"/>
<stop offset="1" stop-color="#0A0A0A" stop-opacity="0.5"/>
</linearGradient>
</defs>
</svg>
