<svg width="200" height="200" viewBox="0 0 200 200" fill="none" xmlns="http://www.w3.org/2000/svg">
<path d="M51.9587 53.775C41.334 64.8024 34.8295 79.1513 33.5384 94.4097C32.2473 109.668 36.2484 124.906 44.8691 137.562C53.4898 150.218 66.2046 159.52 80.8763 163.905C95.5479 168.29 111.282 167.491 125.434 161.642C126.392 155.392 124.292 149.392 123.434 147.292C121.517 142.625 115.2 134.65 104.659 123.592C101.842 120.633 102.025 118.367 103.034 111.617L103.142 110.858C103.825 106.242 104.975 103.508 120.517 101.042C128.417 99.7917 130.492 102.942 133.367 107.317L134.334 108.75C137.067 112.75 139.092 113.667 142.15 115.05C143.525 115.675 145.234 116.467 147.525 117.758C152.959 120.867 152.959 124.375 152.959 132.058V132.933C152.959 136.192 152.642 139.058 152.142 141.55C158.537 133.524 162.993 124.131 165.164 114.102C167.334 104.072 167.161 93.6769 164.657 83.7253C162.153 73.7737 157.387 64.5342 150.728 56.7262C144.069 48.9181 135.698 42.7522 126.267 38.7084C121.659 41.8167 115.334 46.225 113.125 49.25C112 50.7917 110.4 58.6834 105.209 59.3334C103.859 59.5 102.034 59.3834 100.1 59.2584C94.917 58.925 87.8337 58.4667 85.567 64.625C84.1253 68.525 83.8753 79.125 88.5337 84.625C89.2837 85.5 89.4253 87.125 88.917 88.95C88.2503 91.3417 86.9087 92.8 86.4837 93.1C85.6837 92.6334 84.0837 90.775 82.992 89.5167C80.3837 86.4667 77.117 82.6833 72.9003 81.5167C71.367 81.0917 69.6837 80.7417 68.042 80.3917C63.467 79.4334 58.292 78.3417 57.0837 75.775C56.2003 73.8917 56.2087 71.3 56.2087 68.5667C56.2087 65.0917 56.2087 61.1667 54.5087 57.3584C53.9126 56.0021 53.0447 54.7825 51.9587 53.775ZM100 183.333C53.9753 183.333 16.667 146.025 16.667 100C16.667 53.975 53.9753 16.6667 100 16.6667C146.025 16.6667 183.334 53.975 183.334 100C183.334 146.025 146.025 183.333 100 183.333Z" fill="url(#paint0_linear_298_736)"/>
<defs>
<linearGradient id="paint0_linear_298_736" x1="100" y1="16.6667" x2="100" y2="183.333" gradientUnits="userSpaceOnUse">
<stop stop-color="#F8FAFC"/>
<stop offset="1" stop-color="#0A0A0A" stop-opacity="0.2"/>
</linearGradient>
</defs>
</svg>
