<svg width="316" height="65" viewBox="0 0 316 65" fill="none" xmlns="http://www.w3.org/2000/svg">
<path d="M27.75 13.8125C26.7917 12.7292 25.7708 11.9167 24.6875 11.375C23.6042 10.8333 22.4375 10.5208 21.1875 10.4375V4.25C25.8542 4.45833 29.7708 6.10417 32.9375 9.1875L27.75 13.8125ZM21.1875 45.125C22.4375 45 23.6042 44.6667 24.6875 44.125C25.8125 43.5833 26.8333 42.7917 27.75 41.75L32.9375 46.3125C31.3542 47.8542 29.5833 49.0417 27.625 49.875C25.6667 50.7083 23.5208 51.1875 21.1875 51.3125V45.125ZM0.9375 27.75C0.9375 24.0417 1.375 20.7708 2.25 17.9375C3.16667 15.1042 4.41667 12.7083 6 10.75C7.58333 8.79167 9.4375 7.27083 11.5625 6.1875C13.7292 5.10417 16.0833 4.45833 18.625 4.25V10.5C17.25 10.7083 15.9583 11.1875 14.75 11.9375C13.5417 12.6458 12.4792 13.6875 11.5625 15.0625C10.6458 16.4375 9.91667 18.1875 9.375 20.3125C8.875 22.3958 8.60417 24.875 8.5625 27.75C8.60417 30.6667 8.875 33.1667 9.375 35.25C9.91667 37.3333 10.6458 39.0833 11.5625 40.5C12.4792 41.9167 13.5417 43 14.75 43.75C16 44.5 17.2917 44.9583 18.625 45.125V51.25C16.0833 51.0833 13.7292 50.4583 11.5625 49.375C9.4375 48.2917 7.58333 46.7708 6 44.8125C4.41667 42.8542 3.16667 40.4583 2.25 37.625C1.375 34.75 0.9375 31.4583 0.9375 27.75ZM50.8125 40.25C50.8125 41.6667 51 42.7917 51.375 43.625C51.75 44.4167 52.2708 45.0208 52.9375 45.4375C53.6042 45.8125 54.3542 46.0625 55.1875 46.1875C56.0625 46.3125 57 46.375 58 46.375V51C57.4583 51.0833 56.8958 51.1458 56.3125 51.1875C55.8542 51.2292 55.3125 51.25 54.6875 51.25C54.0625 51.2917 53.4375 51.3125 52.8125 51.3125C52.1875 51.3125 51.5625 51.2917 50.9375 51.25C50.3125 51.2083 49.75 51.1458 49.25 51.0625C47.8333 50.7708 46.7292 50.1458 45.9375 49.1875C45.1458 48.2292 44.5417 47.1667 44.125 46C43.7083 44.7917 43.4375 43.625 43.3125 42.5C43.2292 41.375 43.1875 40.5 43.1875 39.875V39.125V2.4375H50.8125V40.25ZM73.5625 51H65.9375V15.75H73.5625V51ZM74.25 4.5C74.25 5.75 73.8125 6.8125 72.9375 7.6875C72.0625 8.52083 71 8.9375 69.75 8.9375C68.5 8.9375 67.4375 8.5 66.5625 7.625C65.7292 6.75 65.3125 5.70833 65.3125 4.5C65.3125 3.25 65.75 2.1875 66.625 1.3125C67.5 0.4375 68.5417 0 69.75 0C71 0 72.0625 0.4375 72.9375 1.3125C73.8125 2.1875 74.25 3.25 74.25 4.5ZM91 15.75L91.8125 19.3125V64.875H84.1875V15.75H91ZM115 26.4375C115.5 28.3542 115.75 30.5 115.75 32.875C115.75 35.25 115.458 37.5625 114.875 39.8125C114.333 42.0208 113.479 43.9792 112.312 45.6875C111.188 47.3958 109.75 48.7708 108 49.8125C106.292 50.8125 104.271 51.3125 101.938 51.3125C100.479 51.3125 99.0833 51.1458 97.75 50.8125C96.4583 50.4792 95.3333 50.0417 94.375 49.5V43C95.75 44.625 97.4375 45.4375 99.4375 45.4375C100.688 45.4375 101.812 45.125 102.812 44.5C103.854 43.875 104.729 43.0417 105.438 42C106.188 40.9167 106.771 39.6458 107.188 38.1875C107.604 36.6875 107.812 35.1042 107.812 33.4375C107.812 31.8125 107.625 30.2708 107.25 28.8125C106.875 27.3542 106.333 26.0625 105.625 24.9375C104.958 23.8125 104.125 22.9167 103.125 22.25C102.167 21.5833 101.042 21.25 99.75 21.25C98.6667 21.25 97.6667 21.4792 96.75 21.9375C95.875 22.3542 95.0833 22.9583 94.375 23.75V17.125C95.3333 16.5833 96.3958 16.1667 97.5625 15.875C98.7292 15.5833 99.9375 15.4375 101.188 15.4375C102.562 15.4375 103.958 15.625 105.375 16C106.792 16.375 108.104 17 109.312 17.875C110.562 18.75 111.688 19.8958 112.688 21.3125C113.688 22.7292 114.458 24.4375 115 26.4375ZM122.5 15.75H131.062L138.5 40.8125V51.25H134.875L122.5 15.75ZM148.562 15.75H157.062L144.688 51.25H141.062V40.8125L148.562 15.75ZM181.875 15.4375C184.125 15.6458 186.146 16.25 187.938 17.25C189.771 18.25 191.333 19.5417 192.625 21.125C193.917 22.7083 194.896 24.5208 195.562 26.5625C196.271 28.6042 196.625 30.7292 196.625 32.9375C196.625 33.9375 196.562 34.9375 196.438 35.9375H175V30.4375H189.438C189.438 29.3542 189.25 28.3125 188.875 27.3125C188.542 26.3125 188.021 25.3958 187.312 24.5625C186.646 23.6875 185.854 22.9583 184.938 22.375C184.021 21.7917 183 21.4375 181.875 21.3125V15.4375ZM181.625 45.125C182.083 45.125 182.646 45.0833 183.312 45C184.021 44.875 184.75 44.6875 185.5 44.4375C186.292 44.1458 187.062 43.7917 187.812 43.375C188.604 42.9583 189.292 42.4583 189.875 41.875L192.625 46.0625C191.25 47.7708 189.646 49.0625 187.812 49.9375C185.979 50.8125 183.646 51.25 180.812 51.25C178.521 51.25 176.375 50.7917 174.375 49.875C172.375 48.9167 170.667 47.625 169.25 46C167.833 44.375 166.708 42.4792 165.875 40.3125C165.042 38.1458 164.625 35.8125 164.625 33.3125C164.625 30.9375 165 28.6875 165.75 26.5625C166.542 24.4375 167.604 22.5833 168.938 21C170.271 19.375 171.812 18.0625 173.562 17.0625C175.354 16.0625 177.271 15.5 179.312 15.375V21.375C177.771 21.6667 176.5 22.2917 175.5 23.25C174.5 24.2083 173.708 25.3125 173.125 26.5625C172.583 27.7708 172.188 29.0208 171.938 30.3125C171.729 31.6042 171.625 32.7083 171.625 33.625C171.625 35.25 171.812 36.7708 172.188 38.1875C172.604 39.5625 173.229 40.7708 174.062 41.8125C174.896 42.8125 175.917 43.625 177.125 44.25C178.375 44.8333 179.875 45.125 181.625 45.125ZM213.75 15.75L214.562 19.375V38.5V38.625V51H207V15.75H213.75ZM217.125 17.3125C218.167 16.7292 219.417 16.2917 220.875 16C222.333 15.6667 224.312 15.5 226.812 15.5V23.375C225.646 23.0417 224.229 22.8542 222.562 22.8125C221.646 22.8125 220.708 22.8958 219.75 23.0625C218.833 23.1875 217.958 23.3958 217.125 23.6875V17.3125ZM234.062 25.8125C234.062 24.2292 234.354 22.8125 234.938 21.5625C235.521 20.2708 236.333 19.1875 237.375 18.3125C238.417 17.3958 239.583 16.6875 240.875 16.1875C242.208 15.6458 243.583 15.3125 245 15.1875V21.4375C243.917 21.6458 243.062 22.0833 242.438 22.75C241.854 23.4167 241.562 24.3542 241.562 25.5625C241.562 26.5625 241.875 27.375 242.5 28C243.167 28.5833 244 29.1042 245 29.5625V36.25C244.292 36.0417 243.562 35.8125 242.812 35.5625C242.104 35.2708 241.396 34.9583 240.688 34.625C238.479 33.4583 236.812 32.2292 235.688 30.9375C234.604 29.6458 234.062 27.9375 234.062 25.8125ZM254.938 23.1875C253.812 22.6042 252.604 22.1667 251.312 21.875C250.062 21.5833 248.812 21.3958 247.562 21.3125V15.125C249.438 15.2083 251.167 15.4792 252.75 15.9375C254.333 16.3542 255.875 17.0417 257.375 18L254.938 23.1875ZM237.375 43.125C238.208 43.7083 239.188 44.25 240.312 44.75C241.479 45.25 242.938 45.5 244.688 45.5H245V51.3125C243.958 51.3125 243 51.2708 242.125 51.1875C241.25 51.1458 240.375 51.0208 239.5 50.8125C238.667 50.5625 237.812 50.2292 236.938 49.8125C236.062 49.3958 235.146 48.8542 234.188 48.1875L237.375 43.125ZM247.562 30.5625C248.812 30.9792 250.083 31.4375 251.375 31.9375C252.667 32.4375 253.833 33.0625 254.875 33.8125C255.958 34.5625 256.833 35.5 257.5 36.625C258.208 37.7083 258.562 39.0833 258.562 40.75C258.562 42.375 258.271 43.7917 257.688 45C257.104 46.2083 256.312 47.25 255.312 48.125C254.354 49 253.208 49.6875 251.875 50.1875C250.542 50.6875 249.104 51.0208 247.562 51.1875V45.25C248.979 45 250.062 44.5625 250.812 43.9375C251.604 43.2708 252 42.3958 252 41.3125C252 40.2292 251.562 39.3958 250.688 38.8125C249.854 38.1875 248.812 37.6458 247.562 37.1875V30.5625ZM284.75 15.4375C287 15.6458 289.021 16.25 290.812 17.25C292.646 18.25 294.208 19.5417 295.5 21.125C296.792 22.7083 297.771 24.5208 298.438 26.5625C299.146 28.6042 299.5 30.7292 299.5 32.9375C299.5 33.9375 299.438 34.9375 299.312 35.9375H277.875V30.4375H292.312C292.312 29.3542 292.125 28.3125 291.75 27.3125C291.417 26.3125 290.896 25.3958 290.188 24.5625C289.521 23.6875 288.729 22.9583 287.812 22.375C286.896 21.7917 285.875 21.4375 284.75 21.3125V15.4375ZM284.5 45.125C284.958 45.125 285.521 45.0833 286.188 45C286.896 44.875 287.625 44.6875 288.375 44.4375C289.167 44.1458 289.938 43.7917 290.688 43.375C291.479 42.9583 292.167 42.4583 292.75 41.875L295.5 46.0625C294.125 47.7708 292.521 49.0625 290.688 49.9375C288.854 50.8125 286.521 51.25 283.688 51.25C281.396 51.25 279.25 50.7917 277.25 49.875C275.25 48.9167 273.542 47.625 272.125 46C270.708 44.375 269.583 42.4792 268.75 40.3125C267.917 38.1458 267.5 35.8125 267.5 33.3125C267.5 30.9375 267.875 28.6875 268.625 26.5625C269.417 24.4375 270.479 22.5833 271.812 21C273.146 19.375 274.688 18.0625 276.438 17.0625C278.229 16.0625 280.146 15.5 282.188 15.375V21.375C280.646 21.6667 279.375 22.2917 278.375 23.25C277.375 24.2083 276.583 25.3125 276 26.5625C275.458 27.7708 275.062 29.0208 274.812 30.3125C274.604 31.6042 274.5 32.7083 274.5 33.625C274.5 35.25 274.688 36.7708 275.062 38.1875C275.479 39.5625 276.104 40.7708 276.938 41.8125C277.771 42.8125 278.792 43.625 280 44.25C281.25 44.8333 282.75 45.125 284.5 45.125ZM315.5 46.75C315.5 48 315.062 49.0625 314.188 49.9375C313.312 50.8125 312.25 51.25 311 51.25C309.75 51.25 308.688 50.8125 307.812 49.9375C306.979 49.0625 306.562 48 306.562 46.75C306.562 45.5 307 44.4583 307.875 43.625C308.75 42.75 309.792 42.3125 311 42.3125C312.25 42.3125 313.312 42.75 314.188 43.625C315.062 44.4583 315.5 45.5 315.5 46.75Z" fill="#0A0A0A"/>
</svg>
