<svg width="200" height="200" viewBox="0 0 200 200" fill="none" xmlns="http://www.w3.org/2000/svg">
<path d="M70.9166 16.6666H129.083C131.017 16.6666 132.5 16.6666 133.8 16.7916C143.033 17.7 150.592 23.25 153.8 30.725H46.2C49.4083 23.25 56.9666 17.7 66.2 16.7916C67.4833 16.6666 68.9666 16.6666 70.9166 16.6666ZM52.5833 39.3583C41 39.3583 31.5 46.3583 28.3333 55.6416L28.1333 56.225C31.45 55.225 34.9083 54.5583 38.4 54.1166C47.4 52.9583 58.7833 52.9583 72 52.9583H129.433C142.65 52.9583 154.025 52.9583 163.033 54.1166C166.533 54.5666 169.983 55.2166 173.3 56.225L173.108 55.6416C169.942 46.3583 160.442 39.3583 148.85 39.3583H52.5833Z" fill="#F8FAFC" fill-opacity="0.9"/>
<path fill-rule="evenodd" clip-rule="evenodd" d="M127.733 62.85H72.2668C44.1501 62.85 30.0835 62.85 22.1835 71.075C14.2835 79.3 16.1418 92 19.8668 117.408L23.3835 141.508C26.3001 161.433 27.7585 171.4 35.2335 177.367C42.7168 183.333 53.7335 183.333 75.7918 183.333H124.208C146.258 183.333 157.292 183.333 164.767 177.367C172.242 171.4 173.7 161.433 176.617 141.508L180.133 117.417C183.858 92 185.717 79.3 177.817 71.075C169.917 62.85 155.85 62.85 127.733 62.85ZM121.508 131.617C126.167 128.733 126.167 121.267 121.508 118.383L93.4168 100.967C88.8918 98.1583 83.3335 101.808 83.3335 107.583V142.417C83.3335 148.192 88.8918 151.833 93.4168 149.033L121.508 131.617Z" fill="url(#paint0_linear_312_725)"/>
<defs>
<linearGradient id="paint0_linear_312_725" x1="100" y1="62.85" x2="100" y2="183.333" gradientUnits="userSpaceOnUse">
<stop stop-color="#F8FAFC"/>
<stop offset="1" stop-color="#0A0A0A" stop-opacity="0.5"/>
</linearGradient>
</defs>
</svg>
